<svg xmlns="http://www.w3.org/2000/svg" width="500" height="500" viewBox="0 0 500 500" version="1.1">
	<path d="M 0.117 32.750 C 0.200 55.890, 0.497 63.886, 1.132 60 C 6.050 29.890, 28.325 7.175, 58.500 1.497 C 64.937 0.286, 62.868 0.173, 32.750 0.090 L 0 0 0.117 32.750 M 440 1.132 C 470.110 6.050, 492.825 28.325, 498.503 58.500 C 499.714 64.937, 499.827 62.868, 499.910 32.750 L 500 0 467.250 0.117 C 444.110 0.200, 436.114 0.497, 440 1.132 M 324.521 94.633 C 292.632 101.504, 266.312 107.355, 266.032 107.635 C 265.751 107.915, 271.244 113.772, 278.237 120.650 L 290.953 133.155 234.726 190.540 L 178.500 247.925 178.241 193.463 L 177.983 139 142.991 139 L 108 139 108 269.500 L 108 400 95.500 400 L 83 400 83 409 L 83 418 250 418 L 417 418 417 409 L 417 400 404.153 400 L 391.306 400 341.394 349.750 C 313.942 322.113, 283.397 291.282, 273.514 281.237 L 255.547 262.974 273.540 244.737 C 283.437 234.707, 301.982 215.925, 314.752 203 L 337.970 179.500 351.450 192.951 C 358.864 200.350, 365.120 206.200, 365.353 205.951 C 365.766 205.510, 386 85.040, 386 83.023 C 386 82.460, 385.212 82.032, 384.250 82.070 C 383.288 82.109, 356.409 87.762, 324.521 94.633 M 332.500 112.280 C 317.100 115.600, 304.300 118.483, 304.055 118.686 C 303.810 118.890, 306.706 122.177, 310.490 125.990 L 317.371 132.924 296.435 154.242 C 284.921 165.967, 249.625 201.986, 218 234.285 L 160.500 293.009 160.243 225.005 L 159.986 157 143.493 157 L 127 157 127 278.500 L 127 400 143.500 400 L 160 400 160 367.406 L 160 334.813 175.250 319.027 C 183.638 310.346, 223.575 269.459, 264 228.169 L 337.500 153.095 345.144 160.669 L 352.788 168.242 353.379 165.371 C 354.342 160.697, 363 108.228, 363 107.066 C 363 105.645, 364.321 105.419, 332.500 112.280 M 226.461 293.039 L 215.522 304.012 228.279 316.756 C 239.449 327.914, 240.976 329.127, 240.549 326.500 C 240.281 324.850, 239.553 314.275, 238.931 303 C 238.309 291.725, 237.710 282.402, 237.600 282.283 C 237.490 282.164, 232.477 287.004, 226.461 293.039 M 257.045 295.959 C 257.124 304.081, 259.681 341.015, 260.200 341.533 C 260.477 341.811, 271.114 341.917, 283.837 341.769 L 306.969 341.500 281.985 316.459 L 257 291.419 257.045 295.959 M 190.235 330.264 L 178 342.529 178 371.264 L 178 400 230.583 400 C 259.751 400, 283.018 399.615, 282.833 399.135 C 282.427 398.081, 203.550 318, 202.918 318 C 202.672 318, 196.964 323.519, 190.235 330.264 M 291 380.500 C 309.403 398.921, 310.689 400, 314.240 400 L 318 400 318 380.500 L 318 361 294.760 361 L 271.519 361 291 380.500 M 337 386.105 L 337 400 350.667 400 C 358.183 400, 364.146 399.810, 363.917 399.579 C 363.688 399.347, 357.538 393.095, 350.250 385.684 L 337 372.210 337 386.105 M 0.125 467.250 L 0 500 32.250 499.910 C 61.954 499.827, 63.947 499.716, 57.500 498.503 C 42.245 495.632, 32.290 490.322, 20.972 479.018 C 9.353 467.413, 3.341 455.532, 0.988 439.523 C 0.571 436.685, 0.195 448.743, 0.125 467.250 M 499 438.790 C 499 443.826, 496.053 453.352, 491.819 462 C 488.474 468.834, 485.976 472.170, 479.079 479.018 C 467.688 490.328, 457.716 495.640, 442.500 498.503 C 436.053 499.716, 438.046 499.827, 467.750 499.910 L 500 500 500 468 C 500 450.400, 499.775 436, 499.500 436 C 499.225 436, 499 437.255, 499 438.790" stroke="none" fill="black" fill-rule="evenodd"/>
</svg>